<?xml version="1.0" standalone="no"?>
<!DOCTYPE svg PUBLIC "-//W3C//DTD SVG 20010904//EN"
 "http://www.w3.org/TR/2001/REC-SVG-20010904/DTD/svg10.dtd">
<svg version="1.0" xmlns="http://www.w3.org/2000/svg"
 width="700.000000pt" height="700.000000pt" viewBox="0 0 700.000000 700.000000"
 preserveAspectRatio="xMidYMid meet">
<metadata>
Created by potrace 1.14, written by Peter Selinger 2001-2017
</metadata>
<g transform="translate(0.000000,700.000000) scale(0.100000,-0.100000)"
fill="#000000" stroke="none">
<path d="M3329 6996 c-2 -2 -49 -6 -105 -10 -55 -4 -109 -8 -120 -10 -10 -2
-46 -7 -79 -11 -163 -19 -468 -90 -645 -150 -223 -76 -523 -217 -716 -337
-354 -221 -669 -504 -920 -824 -325 -417 -556 -910 -663 -1419 -33 -156 -58
-324 -69 -460 -13 -170 -5 -577 13 -674 1 -9 6 -43 10 -75 27 -239 115 -571
217 -826 52 -129 168 -369 213 -440 14 -22 25 -42 25 -44 0 -6 173 -267 194
-293 8 -10 51 -64 96 -121 128 -160 296 -331 496 -502 223 -192 589 -410 898
-537 178 -73 476 -165 616 -189 14 -3 61 -11 105 -19 71 -13 106 -18 205 -30
202 -26 624 -26 805 0 17 2 49 6 73 9 652 81 1332 395 1851 857 533 474 911
1109 1074 1804 20 83 38 168 42 190 42 270 50 374 50 615 -1 151 -12 397 -20
410 -1 3 -6 30 -9 60 -39 337 -165 749 -328 1075 -215 429 -471 761 -848 1100
-115 104 -352 273 -524 375 -406 240 -928 413 -1371 455 -38 4 -83 9 -100 11
-36 5 -461 14 -466 10z"/>
</g>
</svg>
